<?xml version="1.0" encoding="UTF-8"?>
<svg id="Layer_1" data-name="Layer 1" xmlns="http://www.w3.org/2000/svg" width="100" height="100" viewBox="0 0 100 100">
  <defs>
    <style>
      .cls-1 {
        fill: #fff;
      }
    </style>
  </defs>
  <g id="Code_coding_mobile_development" data-name="Code, coding, mobile, development">
    <g>
      <path class="cls-1" d="m54.9,10.8h-9.8c-.9,0-1.63-.73-1.63-1.63s.73-1.63,1.63-1.63h9.8c.9,0,1.63.73,1.63,1.63s-.73,1.63-1.63,1.63Z"/>
      <path class="cls-1" d="m67.97,99h-35.93c-4.5,0-8.17-3.67-8.17-8.17v-55.53c0-.9.73-1.63,1.63-1.63s1.63.73,1.63,1.63v55.53c0,2.7,2.2,4.9,4.9,4.9h35.93c2.7,0,4.9-2.2,4.9-4.9v-55.53c0-.9.73-1.63,1.63-1.63s1.63.73,1.63,1.63v55.53c0,4.5-3.66,8.17-8.17,8.17Z"/>
      <path class="cls-1" d="m74.5,46.73c-.9,0-1.63-.73-1.63-1.63V9.17c0-2.7-2.2-4.9-4.9-4.9h-35.93c-2.7,0-4.9,2.2-4.9,4.9v35.93c0,.9-.73,1.63-1.63,1.63s-1.63-.73-1.63-1.63V9.17c0-4.5,3.66-8.17,8.17-8.17h35.93c4.5,0,8.17,3.67,8.17,8.17v35.93c0,.9-.73,1.63-1.63,1.63Z"/>
      <g>
        <path class="cls-1" d="m48.37,58.17c-.13,0-.26-.02-.4-.05-.88-.22-1.41-1.1-1.19-1.98l3.27-13.07c.22-.88,1.09-1.41,1.98-1.19.88.22,1.41,1.1,1.19,1.98l-3.27,13.07c-.18.74-.85,1.24-1.58,1.24h0Z"/>
        <path class="cls-1" d="m58.17,58.17c-.42,0-.84-.16-1.16-.48-.64-.64-.64-1.67,0-2.31l5.38-5.38-5.38-5.38c-.64-.64-.64-1.67,0-2.31s1.67-.64,2.31,0l6.53,6.53c.64.64.64,1.67,0,2.31l-6.53,6.53c-.32.32-.74.48-1.16.48Z"/>
        <path class="cls-1" d="m41.83,58.17c-.42,0-.84-.16-1.16-.48l-6.53-6.53c-.64-.64-.64-1.67,0-2.31l6.53-6.53c.64-.64,1.67-.64,2.31,0s.64,1.67,0,2.31l-5.38,5.38,5.38,5.38c.64.64.64,1.67,0,2.31-.32.32-.74.48-1.15.48Z"/>
      </g>
    </g>
  </g>
</svg>