<?xml version="1.0" encoding="UTF-8"?>
<svg id="Layer_1" data-name="Layer 1" xmlns="http://www.w3.org/2000/svg" width="100" height="100" viewBox="0 0 100 100">
  <defs>
    <style>
      .cls-1 {
        fill: #fff;
      }
    </style>
  </defs>
  <path class="cls-1" d="m38.1,96.46c-.85,0-1.54-.69-1.54-1.54v-12.25c0-.85.69-1.54,1.54-1.54h1.03l-8.67-30.39c-.15-.54,0-1.12.39-1.51,6.27-6.29,12.54-14.76,18.13-24.49.04-.06.07-.11.1-.15.1-.13.19-.22.29-.3.07-.06.12-.08.16-.11.13-.07.25-.12.37-.16.08-.02.13-.03.19-.04.1-.01.16-.02.22-.02s.13,0,.19.01c.09.01.14.02.2.04.15.04.27.09.38.15.07.04.11.07.16.1.12.1.21.19.29.29.05.07.08.12.11.17,5.52,9.6,11.96,18.3,18.14,24.51.39.4.54.97.39,1.51l-8.67,30.39h1.03c.85,0,1.54.69,1.54,1.54v12.25c0,.85-.69,1.54-1.54,1.54h-24.43Zm1.54-3.08h21.35v-9.17h-21.35v9.17Zm10.67-17.13c.85,0,1.54.69,1.54,1.54v3.34h6.44l8.67-30.37-.2-.21c-4.69-4.85-9.52-11.09-13.98-18.03l-.92-1.43v25.27l.33.12c2.24.79,3.75,2.93,3.75,5.3,0,3.1-2.52,5.62-5.62,5.62s-5.63-2.52-5.63-5.62c0-2.38,1.51-4.51,3.75-5.3l.33-.12v-25.27l-.92,1.44c-4.48,7-9.19,13.06-13.98,18.02l-.2.21,8.67,30.37h6.44v-3.34c0-.85.69-1.54,1.54-1.54Zm0-17.01c-1.4,0-2.54,1.14-2.54,2.54s1.14,2.54,2.54,2.54,2.54-1.14,2.54-2.54-1.14-2.54-2.54-2.54Z"/>
  <path class="cls-1" d="m84.71,59.71c-.85,0-1.54-.69-1.54-1.54v-12.25c0-.85.69-1.54,1.54-1.54h3.84l-.13-.61c-3.25-15.06-15.08-26.9-30.14-30.14l-.61-.13v3.84c0,.85-.69,1.54-1.54,1.54h-12.25c-.85,0-1.54-.69-1.54-1.54v-3.84l-.61.13c-15.06,3.25-26.89,15.08-30.14,30.14l-.13.61h3.84c.85,0,1.54.69,1.54,1.54v12.25c0,.85-.69,1.54-1.54,1.54H3.04c-.85,0-1.54-.69-1.54-1.54v-12.25c0-.85.69-1.54,1.54-1.54h5.28l.08-.41c1.6-8.3,5.62-15.87,11.64-21.89,4.84-4.84,10.56-8.34,16.99-10.39l-.15-.98H12.54l-.12.33c-.79,2.24-2.93,3.75-5.3,3.75-3.1,0-5.62-2.52-5.62-5.62S4.02,3.54,7.12,3.54c2.38,0,4.51,1.51,5.3,3.75l.12.33h29.79v-2.54c0-.85.69-1.54,1.54-1.54h12.25c.85,0,1.54.69,1.54,1.54v2.54h29.79l.12-.33c.79-2.24,2.93-3.75,5.3-3.75,3.1,0,5.62,2.52,5.62,5.62s-2.52,5.62-5.62,5.62c-2.38,0-4.51-1.51-5.3-3.75l-.12-.33h-24.33l-.15.98c6.43,2.06,12.15,5.55,16.99,10.39,6.02,6.02,10.05,13.59,11.64,21.89l.08.41h5.28c.85,0,1.54.69,1.54,1.54v12.25c0,.85-.69,1.54-1.54,1.54h-12.25Zm1.54-3.08h9.17v-9.17h-9.17v9.17Zm-81.67,0h9.17v-9.17H4.58v9.17ZM45.42,15.79h9.17V6.62h-9.17v9.17Zm47.46-9.17c-1.4,0-2.54,1.14-2.54,2.54s1.14,2.54,2.54,2.54,2.54-1.14,2.54-2.54-1.14-2.54-2.54-2.54ZM7.12,6.62c-1.4,0-2.54,1.14-2.54,2.54s1.14,2.54,2.54,2.54,2.54-1.14,2.54-2.54-1.14-2.54-2.54-2.54Z"/>
  <path class="cls-1" d="m50.31,70.13c-1.13,0-2.04.91-2.04,2.04v.09c0,1.13.91,2.04,2.04,2.04s2.04-.91,2.04-2.04v-.09c0-1.13-.91-2.04-2.04-2.04Z"/>
</svg>