<?xml version="1.0" encoding="UTF-8"?>
<svg id="Layer_1" data-name="Layer 1" xmlns="http://www.w3.org/2000/svg" width="100" height="100" viewBox="0 0 100 100">
  <defs>
    <style>
      .cls-1 {
        fill: #fff;
      }
    </style>
  </defs>
  <g>
    <path class="cls-1" d="m84.71,20.92c-5.35,0-9.71-4.35-9.71-9.71s4.36-9.71,9.71-9.71,9.71,4.35,9.71,9.71-4.36,9.71-9.71,9.71Zm0-16.33c-3.65,0-6.62,2.97-6.62,6.62s2.97,6.62,6.62,6.62,6.62-2.97,6.62-6.62-2.97-6.62-6.62-6.62Z"/>
    <path class="cls-1" d="m96.96,25c-.41,0-.8-.16-1.09-.45l-6.12-6.12c-.6-.6-.6-1.58,0-2.18.29-.29.68-.45,1.09-.45s.8.16,1.09.45l6.12,6.12c.29.29.45.68.45,1.09s-.16.8-.45,1.09-.68.45-1.09.45Z"/>
  </g>
  <path class="cls-1" d="m7.12,25c-3.1,0-5.62-2.52-5.62-5.62V7.12C1.5,4.02,4.02,1.5,7.12,1.5h53.08c3.1,0,5.62,2.52,5.62,5.62v12.25c0,3.1-2.52,5.62-5.62,5.62H7.12Zm0-20.42c-1.4,0-2.54,1.14-2.54,2.54v12.25c0,1.4,1.14,2.54,2.54,2.54h53.08c1.4,0,2.54-1.14,2.54-2.54V7.12c0-1.4-1.14-2.54-2.54-2.54H7.12Z"/>
  <path class="cls-1" d="m13.25,98.5c-6.48,0-11.75-5.27-11.75-11.75s5.27-11.75,11.75-11.75,11.75,5.27,11.75,11.75-5.27,11.75-11.75,11.75Zm0-20.42c-4.78,0-8.67,3.89-8.67,8.67s3.89,8.67,8.67,8.67,8.67-3.89,8.67-8.67-3.89-8.67-8.67-8.67Z"/>
  <path class="cls-1" d="m23.46,54.08H3.04c-1.13,0-2.04-.91-2.04-2.04s.91-2.04,2.04-2.04h20.42c1.13,0,2.04.91,2.04,2.04s-.91,2.04-2.04,2.04Z"/>
  <path class="cls-1" d="m23.46,66.33H3.04c-1.13,0-2.04-.91-2.04-2.04s.91-2.04,2.04-2.04h20.42c1.13,0,2.04.91,2.04,2.04s-.91,2.04-2.04,2.04Z"/>
  <path class="cls-1" d="m23.46,41.83H3.04c-1.13,0-2.04-.91-2.04-2.04s.91-2.04,2.04-2.04h20.42c1.13,0,2.04.91,2.04,2.04s-.91,2.04-2.04,2.04Z"/>
  <path class="cls-1" d="m92.88,33.67c3.38,0,6.12,2.75,6.12,6.12v53.08c0,3.38-2.75,6.12-6.12,6.12h-53.08c-3.38,0-6.12-2.75-6.12-6.12v-53.08c0-3.38,2.75-6.12,6.12-6.12m0,4.08c-1.12,0-2.04.92-2.04,2.04v53.08c0,1.12.92,2.04,2.04,2.04h53.08c1.12,0,2.04-.92,2.04-2.04v-53.08c0-1.12-.92-2.04-2.04-2.04h-53.08Z"/>
  <g>
    <path class="cls-1" d="m66.33,61.75c-3.1,0-5.62-2.52-5.62-5.62s2.52-5.62,5.62-5.62,5.62,2.52,5.62,5.62-2.52,5.62-5.62,5.62Zm0-8.17c-1.4,0-2.54,1.14-2.54,2.54s1.14,2.54,2.54,2.54,2.54-1.14,2.54-2.54-1.14-2.54-2.54-2.54Z"/>
    <path class="cls-1" d="m76.54,78.08c-.85,0-1.54-.69-1.54-1.54v-2.04c0-2.53-2.06-4.58-4.58-4.58h-8.17c-2.53,0-4.58,2.06-4.58,4.58v2.04c0,.85-.69,1.54-1.54,1.54s-1.54-.69-1.54-1.54v-2.04c0-4.23,3.44-7.67,7.67-7.67h8.17c4.23,0,7.67,3.44,7.67,7.67v2.04c0,.85-.69,1.54-1.54,1.54Z"/>
  </g>
</svg>