<?xml version="1.0" encoding="UTF-8"?>
<svg id="Layer_1" data-name="Layer 1" xmlns="http://www.w3.org/2000/svg" width="100" height="100" viewBox="0 0 100 100">
  <defs>
    <style>
      .cls-1 {
        fill: #fff;
      }
    </style>
  </defs>
  <g>
    <path class="cls-1" d="m15.3,98c-7.33,0-13.3-5.97-13.3-13.3V15.3C2,7.97,7.97,2,15.3,2h69.4c7.33,0,13.3,5.97,13.3,13.3v69.4c0,7.33-5.97,13.3-13.3,13.3H15.3Zm-9.76-13.3c0,5.38,4.38,9.76,9.76,9.76h69.4c5.38,0,9.76-4.38,9.76-9.76V15.3c0-5.38-4.38-9.76-9.76-9.76H15.3c-5.38,0-9.76,4.38-9.76,9.76v11.02h75.33c.97,0,1.77.79,1.77,1.77s-.79,1.77-1.77,1.77H5.54v54.85Z"/>
    <path class="cls-1" d="m15.63,13.16c-.73,0-1.44.3-1.96.81s-.81,1.23-.81,1.96.3,1.44.81,1.96,1.23.81,1.96.81,1.44-.3,1.96-.81c.51-.51.81-1.22.81-1.96s-.3-1.44-.81-1.96c-.52-.52-1.23-.81-1.96-.81Z"/>
    <path class="cls-1" d="m26.8,13.16c-.73,0-1.44.3-1.96.81-.51.51-.81,1.23-.81,1.96s.3,1.44.81,1.96,1.23.81,1.96.81,1.44-.3,1.96-.81.81-1.23.81-1.96-.3-1.44-.81-1.96c-.52-.52-1.23-.81-1.96-.81Z"/>
    <path class="cls-1" d="m37.97,13.16c-.73,0-1.44.3-1.96.81-.51.51-.81,1.23-.81,1.96s.3,1.44.81,1.96,1.23.81,1.96.81,1.44-.3,1.96-.81.81-1.23.81-1.96-.3-1.44-.81-1.96c-.52-.52-1.23-.81-1.96-.81Z"/>
  </g>
  <g>
    <path class="cls-1" d="m47.94,69.32c-.17,0-.33-.02-.5-.06-1.11-.28-1.78-1.4-1.5-2.5l4.13-16.51c.27-1.11,1.37-1.78,2.5-1.5,1.11.28,1.78,1.4,1.5,2.5l-4.13,16.51c-.23.94-1.07,1.56-2,1.56h0Z"/>
    <path class="cls-1" d="m60.32,69.32c-.53,0-1.06-.2-1.46-.6-.8-.8-.8-2.11,0-2.92l6.8-6.8-6.79-6.79c-.8-.8-.8-2.11,0-2.92s2.11-.8,2.92,0l8.25,8.25c.8.8.8,2.11,0,2.92l-8.25,8.25c-.4.4-.93.6-1.46.6Z"/>
    <path class="cls-1" d="m39.68,69.32c-.53,0-1.06-.2-1.46-.6l-8.25-8.25c-.8-.8-.8-2.11,0-2.92l8.25-8.25c.8-.8,2.11-.8,2.92,0s.8,2.11,0,2.92l-6.79,6.79,6.79,6.79c.8.8.8,2.11,0,2.92-.4.4-.93.61-1.46.61Z"/>
  </g>
</svg>